<svg xmlns="http://www.w3.org/2000/svg" viewBox="0 0 702 504"><g fill="none" stroke="#f49fa4" stroke-width="2"><path d="M673.18 251.5A322.68 223.63 0 0 0 350.5 27.87 322.68 223.63 0 0 0 27.82 251.5 322.68 223.63 0 0 0 350.5 475.13 322.68 223.63 0 0 0 673.18 251.5" vector-effect="non-scaling-stroke"/><path d="M666.35 431.97a34.43 34.43 0 0 0-34.43-34.43 34.43 34.43 0 0 0-34.43 34.43 34.43 34.43 0 0 0 34.43 34.43 34.43 34.43 0 0 0 34.43-34.43M630.25 267.67l3.19-12.64a1.36 1.36 0 0 1 1.32-1.03h25.23a.62.62 0 0 0 .62-.63q-.18-43.2-23.35-79.61C593.95 105.7 509.83 68.66 433.43 54.88c-81.76-14.75-168.15-8-245.38 23.39-65.02 26.41-130.58 77.17-145.22 150.08q-.23 1.15.94 1.15h93.27a.43.43 0 0 1 .42.54l-3.51 12.93q-.14.53-.69.53H41.04q-.37 0-.39.38c-3.75 82.94 62.68 142.35 130.92 174.31q50.85 23.82 110.68 32.31c88.46 12.56 178.96 1.87 258.43-38.61 57.03-29.05 108.57-76.98 119.58-142.93q.11-.65-.55-.65l-29.03-.09a.44.44 0 0 1-.43-.55" vector-effect="non-scaling-stroke"/><path d="M336.91 87.86c-46.16 13.9-68.24 67.1-66.45 111.14.42 10.46 5.26 23.27 12.32 31.04 12.67 13.96 35.68 16.42 53.51 12.58 20.17-4.35 35.71-18.56 44.6-36.5a.43.43 0 0 0-.39-.62h-14.74a.75.75 0 0 0-.64.36c-10.55 17.09-27.62 26.57-48.13 24.11-43.18-5.16-33.06-60.35-21.38-86.31 10.93-24.28 31.31-44.44 59.16-44.84 18.46-.26 31.59 8.68 33.13 28.16a.83.83 0 0 0 .83.77h13.24a1.15 1.15 0 0 0 1.15-1.18c-1.21-37.77-35.27-48.03-66.21-38.71M454.22 91.77c-37.33 17.47-56.03 61.12-56.57 99.99-.33 23.69 9.48 44.66 34.18 50.65 48.65 11.8 86.71-30 97.78-72.66 5.92-22.8 7.59-51.61-9.29-70.32-16.58-18.38-45.09-17.5-66.1-7.66" vector-effect="non-scaling-stroke"/><path d="M170.78 229.5a.42.42 0 0 1-.4-.54l17.95-57.65a.42.42 0 0 1 .4-.3l73.48-.02a.42.42 0 0 0 .4-.3l4.01-13.15a.42.42 0 0 0-.4-.54h-72.81a.42.42 0 0 1-.4-.55l16.66-53.41a.42.42 0 0 1 .4-.29h78.7a.42.42 0 0 0 .4-.3l3.99-13.16a.42.42 0 0 0-.41-.54h-93.6a.42.42 0 0 0-.4.29l-48.13 153.91a.42.42 0 0 0 .4.55h94.64a.42.42 0 0 0 .4-.29l4.15-13.16a.42.42 0 0 0-.4-.55h-79.03M283.19 295.02c1.06-42.93-46.12-49.46-75.48-34.82-34.96 17.43-53.4 56.75-54.91 94.84-1.59 40.21 24.85 60.47 63.13 53.35 20.95-3.9 36.44-17.83 45.78-36.42q.37-.72-.44-.72h-14.78q-.52 0-.8.44c-9.69 15.07-23.03 23.9-40.79 23.96-24.03.08-37.51-16.58-36.87-40.38.99-36.86 22.88-86.29 66.01-87.99 18.51-.72 32.43 7.65 33.85 27.64q.05.58.63.58h14.18q.48 0 .49-.48M283.13 395a.42.42 0 0 1-.4-.54l17.95-57.66a.42.42 0 0 1 .4-.3h73.53a.42.42 0 0 0 .4-.3l3.94-13.41a.42.42 0 0 0-.4-.54h-72.72a.42.42 0 0 1-.4-.55l16.63-53.16a.42.42 0 0 1 .4-.29h78.68a.42.42 0 0 0 .4-.3l4.04-13.41a.42.42 0 0 0-.41-.54H311.6a.42.42 0 0 0-.4.29l-48.22 154.16a.42.42 0 0 0 .4.55h94.65a.42.42 0 0 0 .4-.29l4.16-13.16a.42.42 0 0 0-.4-.55h-79.06M404.59 336.32q38.44-.24 50.34-.01c18.36.36 10.94 27.43 8.38 37.2q-4.5 17.18-3.56 34.48.06 1.01 1.06 1.01h13.91q.56 0 .5-.55c-1.68-17.34 3.19-34.51 6.2-51.46 1.61-9.02 2.37-20.69-8.18-24.75q-.49-.19-.66-.69c-.67-1.94.27-2.81 2.18-3.14 22.09-3.83 32.15-22.54 31.72-43.46-.55-26.78-20.36-30.68-42.25-30.88q-24.57-.22-49.34-.01-.51.01-.66.49l-48.11 153.82q-.2.63.46.63h13.78q.65 0 .85-.62l22.8-71.63q.14-.43.58-.43M568.45 268.58a.47.47 0 0 1 .45-.33h43.36a.47.47 0 0 0 .45-.33l4.14-13.31a.47.47 0 0 0-.45-.61H514.18a.47.47 0 0 0-.45.33l-4.01 13.31a.47.47 0 0 0 .45.61h42.59a.47.47 0 0 1 .45.61l-43.6 139.53a.47.47 0 0 0 .45.61h14.14a.47.47 0 0 0 .45-.33l43.8-140.09M484.71 98.68c-45.29-.69-69.75 47.15-71.78 86.24-1.31 25.1 9.19 45.14 36.76 45.48 42.29.53 65.76-46.89 68.82-82.41 1.92-22.25-7.08-48.91-33.8-49.31" vector-effect="non-scaling-stroke"/><path d="M483.81 272.69c-6.68-4.57-12.92-4.35-22.62-4.41q-17.78-.09-35.62 0-.55 0-.71.53l-16.14 52.92q-.15.48.35.48 23.22.16 46.74-.08c15.12-.16 28.84-4.8 33.41-20.62 2.73-9.44 3.3-22.87-5.41-28.82M664.09 431.96a32.11 32.11 0 0 0-32.11-32.11 32.11 32.11 0 0 0-32.11 32.11 32.11 32.11 0 0 0 32.11 32.11 32.11 32.11 0 0 0 32.11-32.11" vector-effect="non-scaling-stroke"/><path d="M627.03 435.77a.53.53 0 0 1 .98-.28l12.24 19.64a.67.65 70.7 0 0 .62.31l4.54-.42q.71-.06.33-.66l-11.99-18.86a.4.4 0 0 1 .25-.61q7.04-1.47 8.61-8.59c3.38-15.37-8.08-17.42-19.84-16.38q-.52.05-.52.57v44.14q0 .62.63.62h3.55q.67 0 .67-.67l-.07-18.81" vector-effect="non-scaling-stroke"/><path d="m627.06 415.47.06 14.36a.75.75 0 0 0 .75.75l2.74-.01a7.93 7.48-.2 0 0 7.9-7.51v-.9a7.93 7.48-.2 0 0-7.96-7.45l-2.74.01a.75.75 0 0 0-.75.75" vector-effect="non-scaling-stroke"/></g><path fill="#fff" d="M0 0h702v504H0V0Zm673.18 251.5A322.68 223.63 0 0 0 350.5 27.87 322.68 223.63 0 0 0 27.82 251.5 322.68 223.63 0 0 0 350.5 475.13 322.68 223.63 0 0 0 673.18 251.5Zm-6.83 180.47a34.43 34.43 0 0 0-34.43-34.43 34.43 34.43 0 0 0-34.43 34.43 34.43 34.43 0 0 0 34.43 34.43 34.43 34.43 0 0 0 34.43-34.43Z"/><path fill="#e93e48" d="M673.18 251.5A322.68 223.63 0 0 1 350.5 475.13 322.68 223.63 0 0 1 27.82 251.5 322.68 223.63 0 0 1 350.5 27.87 322.68 223.63 0 0 1 673.18 251.5Zm-42.93 16.17 3.19-12.64a1.36 1.36 0 0 1 1.32-1.03h25.23a.62.62 0 0 0 .62-.63q-.18-43.2-23.35-79.61C593.95 105.7 509.83 68.66 433.43 54.88c-81.76-14.75-168.15-8-245.38 23.39-65.02 26.41-130.58 77.17-145.22 150.08q-.23 1.15.94 1.15h93.27a.43.43 0 0 1 .42.54l-3.51 12.93q-.14.53-.69.53H41.04q-.37 0-.39.38c-3.75 82.94 62.68 142.35 130.92 174.31q50.85 23.82 110.68 32.31c88.46 12.56 178.96 1.87 258.43-38.61 57.03-29.05 108.57-76.98 119.58-142.93q.11-.65-.55-.65l-29.03-.09a.44.44 0 0 1-.43-.55Z"/><path fill="#fff" d="m630.68 268.22 29.03.09q.66 0 .55.65c-11.01 65.95-62.55 113.88-119.58 142.93-79.47 40.48-169.97 51.17-258.43 38.61q-59.83-8.49-110.68-32.31C103.33 386.23 36.9 326.82 40.65 243.88q.02-.38.39-.38h92.22q.55 0 .69-.53l3.51-12.93a.43.43 0 0 0-.42-.54H43.77q-1.17 0-.94-1.15c14.64-72.91 80.2-123.67 145.22-150.08 77.23-31.39 163.62-38.14 245.38-23.39 76.4 13.78 160.52 50.82 203.83 118.88q23.17 36.41 23.35 79.61a.62.62 0 0 1-.62.63h-25.23a1.36 1.36 0 0 0-1.32 1.03l-3.19 12.64a.44.44 0 0 0 .43.55ZM336.91 87.86c-46.16 13.9-68.24 67.1-66.45 111.14.42 10.46 5.26 23.27 12.32 31.04 12.67 13.96 35.68 16.42 53.51 12.58 20.17-4.35 35.71-18.56 44.6-36.5a.43.43 0 0 0-.39-.62h-14.74a.75.75 0 0 0-.64.36c-10.55 17.09-27.62 26.57-48.13 24.11-43.18-5.16-33.06-60.35-21.38-86.31 10.93-24.28 31.31-44.44 59.16-44.84 18.46-.26 31.59 8.68 33.13 28.16a.83.83 0 0 0 .83.77h13.24a1.15 1.15 0 0 0 1.15-1.18c-1.21-37.77-35.27-48.03-66.21-38.71Zm117.31 3.91c-37.33 17.47-56.03 61.12-56.57 99.99-.33 23.69 9.48 44.66 34.18 50.65 48.65 11.8 86.71-30 97.78-72.66 5.92-22.8 7.59-51.61-9.29-70.32-16.58-18.38-45.09-17.5-66.1-7.66ZM170.78 229.5a.42.42 0 0 1-.4-.54l17.95-57.65a.42.42 0 0 1 .4-.3l73.48-.02a.42.42 0 0 0 .4-.3l4.01-13.15a.42.42 0 0 0-.4-.54h-72.81a.42.42 0 0 1-.4-.55l16.66-53.41a.42.42 0 0 1 .4-.29h78.7a.42.42 0 0 0 .4-.3l3.99-13.16a.42.42 0 0 0-.41-.54h-93.6a.42.42 0 0 0-.4.29l-48.13 153.91a.42.42 0 0 0 .4.55h94.64a.42.42 0 0 0 .4-.29l4.15-13.16a.42.42 0 0 0-.4-.55h-79.03Zm112.41 65.52c1.06-42.93-46.12-49.46-75.48-34.82-34.96 17.43-53.4 56.75-54.91 94.84-1.59 40.21 24.85 60.47 63.13 53.35 20.95-3.9 36.44-17.83 45.78-36.42q.37-.72-.44-.72h-14.78q-.52 0-.8.44c-9.69 15.07-23.03 23.9-40.79 23.96-24.03.08-37.51-16.58-36.87-40.38.99-36.86 22.88-86.29 66.01-87.99 18.51-.72 32.43 7.65 33.85 27.64q.05.58.63.58h14.18q.48 0 .49-.48Zm-.06 99.98a.42.42 0 0 1-.4-.54l17.95-57.66a.42.42 0 0 1 .4-.3h73.53a.42.42 0 0 0 .4-.3l3.94-13.41a.42.42 0 0 0-.4-.54h-72.72a.42.42 0 0 1-.4-.55l16.63-53.16a.42.42 0 0 1 .4-.29h78.68a.42.42 0 0 0 .4-.3l4.04-13.41a.42.42 0 0 0-.41-.54H311.6a.42.42 0 0 0-.4.29l-48.22 154.16a.42.42 0 0 0 .4.55h94.65a.42.42 0 0 0 .4-.29l4.16-13.16a.42.42 0 0 0-.4-.55h-79.06Zm121.46-58.68q38.44-.24 50.34-.01c18.36.36 10.94 27.43 8.38 37.2q-4.5 17.18-3.56 34.48.06 1.01 1.06 1.01h13.91q.56 0 .5-.55c-1.68-17.34 3.19-34.51 6.2-51.46 1.61-9.02 2.37-20.69-8.18-24.75q-.49-.19-.66-.69c-.67-1.94.27-2.81 2.18-3.14 22.09-3.83 32.15-22.54 31.72-43.46-.55-26.78-20.36-30.68-42.25-30.88q-24.57-.22-49.34-.01-.51.01-.66.49l-48.11 153.82q-.2.63.46.63h13.78q.65 0 .85-.62l22.8-71.63q.14-.43.58-.43Zm163.86-67.74a.47.47 0 0 1 .45-.33h43.36a.47.47 0 0 0 .45-.33l4.14-13.31a.47.47 0 0 0-.45-.61H514.18a.47.47 0 0 0-.45.33l-4.01 13.31a.47.47 0 0 0 .45.61h42.59a.47.47 0 0 1 .45.61l-43.6 139.53a.47.47 0 0 0 .45.61h14.14a.47.47 0 0 0 .45-.33l43.8-140.09Z"/><path fill="#e93e48" d="M270.46 199c-1.79-44.04 20.29-97.24 66.45-111.14 30.94-9.32 65 .94 66.21 38.71a1.15 1.15 0 0 1-1.15 1.18h-13.24a.83.83 0 0 1-.83-.77c-1.54-19.48-14.67-28.42-33.13-28.16-27.85.4-48.23 20.56-59.16 44.84-11.68 25.96-21.8 81.15 21.38 86.31 20.51 2.46 37.58-7.02 48.13-24.11a.75.75 0 0 1 .64-.36h14.74a.43.43 0 0 1 .39.62c-8.89 17.94-24.43 32.15-44.6 36.5-17.83 3.84-40.84 1.38-53.51-12.58-7.06-7.77-11.9-20.58-12.32-31.04ZM397.65 191.76c.54-38.87 19.24-82.52 56.57-99.99 21.01-9.84 49.52-10.72 66.1 7.66 16.88 18.71 15.21 47.52 9.29 70.32-11.07 42.66-49.13 84.46-97.78 72.66-24.7-5.99-34.51-26.96-34.18-50.65Zm87.06-93.08c-45.29-.69-69.75 47.15-71.78 86.24-1.31 25.1 9.19 45.14 36.76 45.48 42.29.53 65.76-46.89 68.82-82.41 1.92-22.25-7.08-48.91-33.8-49.31Z"/><path fill="#e93e48" d="M170.78 229.5h79.03a.42.42 0 0 1 .4.55l-4.15 13.16a.42.42 0 0 1-.4.29h-94.64a.42.42 0 0 1-.4-.55l48.13-153.91a.42.42 0 0 1 .4-.29h93.6a.42.42 0 0 1 .41.54l-3.99 13.16a.42.42 0 0 1-.4.3h-78.7a.42.42 0 0 0-.4.29l-16.66 53.41a.42.42 0 0 0 .4.55h72.81a.42.42 0 0 1 .4.54l-4.01 13.15a.42.42 0 0 1-.4.3l-73.48.02a.42.42 0 0 0-.4.3l-17.95 57.65a.42.42 0 0 0 .4.54Z"/><path fill="#fff" d="M412.93 184.92c2.03-39.09 26.49-86.93 71.78-86.24 26.72.4 35.72 27.06 33.8 49.31-3.06 35.52-26.53 82.94-68.82 82.41-27.57-.34-38.07-20.38-36.76-45.48Z"/><path fill="#e93e48" d="M207.71 260.2c29.36-14.64 76.54-8.11 75.48 34.82q-.01.48-.49.48h-14.18q-.58 0-.63-.58c-1.42-19.99-15.34-28.36-33.85-27.64-43.13 1.7-65.02 51.13-66.01 87.99-.64 23.8 12.84 40.46 36.87 40.38 17.76-.06 31.1-8.89 40.79-23.96q.28-.44.8-.44h14.78q.81 0 .44.72c-9.34 18.59-24.83 32.52-45.78 36.42-38.28 7.12-64.72-13.14-63.13-53.35 1.51-38.09 19.95-77.41 54.91-94.84ZM283.13 395h79.06a.42.42 0 0 1 .4.55l-4.16 13.16a.42.42 0 0 1-.4.29h-94.65a.42.42 0 0 1-.4-.55l48.22-154.16a.42.42 0 0 1 .4-.29h93.57a.42.42 0 0 1 .41.54l-4.04 13.41a.42.42 0 0 1-.4.3h-78.68a.42.42 0 0 0-.4.29l-16.63 53.16a.42.42 0 0 0 .4.55h72.72a.42.42 0 0 1 .4.54l-3.94 13.41a.42.42 0 0 1-.4.3h-73.53a.42.42 0 0 0-.4.3l-17.95 57.66a.42.42 0 0 0 .4.54ZM404.01 336.75l-22.8 71.63q-.2.62-.85.62h-13.78q-.66 0-.46-.63l48.11-153.82q.15-.48.66-.49 24.77-.21 49.34.01c21.89.2 41.7 4.1 42.25 30.88.43 20.92-9.63 39.63-31.72 43.46-1.91.33-2.85 1.2-2.18 3.14q.17.5.66.69c10.55 4.06 9.79 15.73 8.18 24.75-3.01 16.95-7.88 34.12-6.2 51.46q.06.55-.5.55h-13.91q-1 0-1.06-1.01-.94-17.3 3.56-34.48c2.56-9.77 9.98-36.84-8.38-37.2q-11.9-.23-50.34.01-.44 0-.58.43Zm79.8-64.06c-6.68-4.57-12.92-4.35-22.62-4.41q-17.78-.09-35.62 0-.55 0-.71.53l-16.14 52.92q-.15.48.35.48 23.22.16 46.74-.08c15.12-.16 28.84-4.8 33.41-20.62 2.73-9.44 3.3-22.87-5.41-28.82ZM568.45 268.58l-43.8 140.09a.47.47 0 0 1-.45.33h-14.14a.47.47 0 0 1-.45-.61l43.6-139.53a.47.47 0 0 0-.45-.61h-42.59a.47.47 0 0 1-.45-.61l4.01-13.31a.47.47 0 0 1 .45-.33H616.4a.47.47 0 0 1 .45.61l-4.14 13.31a.47.47 0 0 1-.45.33H568.9a.47.47 0 0 0-.45.33Z"/><path fill="#fff" d="M483.81 272.69c8.71 5.95 8.14 19.38 5.41 28.82-4.57 15.82-18.29 20.46-33.41 20.62q-23.52.24-46.74.08-.5 0-.35-.48l16.14-52.92q.16-.53.71-.53 17.84-.09 35.62 0c9.7.06 15.94-.16 22.62 4.41Z"/><path fill="#e93e48" d="M666.35 431.97a34.43 34.43 0 0 1-34.43 34.43 34.43 34.43 0 0 1-34.43-34.43 34.43 34.43 0 0 1 34.43-34.43 34.43 34.43 0 0 1 34.43 34.43Zm-2.26-.01a32.11 32.11 0 0 0-32.11-32.11 32.11 32.11 0 0 0-32.11 32.11 32.11 32.11 0 0 0 32.11 32.11 32.11 32.11 0 0 0 32.11-32.11Z"/><path fill="#fff" d="M664.09 431.96a32.11 32.11 0 0 1-32.11 32.11 32.11 32.11 0 0 1-32.11-32.11 32.11 32.11 0 0 1 32.11-32.11 32.11 32.11 0 0 1 32.11 32.11Zm-37.06 3.81a.53.53 0 0 1 .98-.28l12.24 19.64a.67.65 70.7 0 0 .62.31l4.54-.42q.71-.06.33-.66l-11.99-18.86a.4.4 0 0 1 .25-.61q7.04-1.47 8.61-8.59c3.38-15.37-8.08-17.42-19.84-16.38q-.52.05-.52.57v44.14q0 .62.63.62h3.55q.67 0 .67-.67l-.07-18.81Z"/><path fill="#e93e48" d="m627.03 435.77.07 18.81q0 .67-.67.67h-3.55q-.63 0-.63-.62v-44.14q0-.52.52-.57c11.76-1.04 23.22 1.01 19.84 16.38q-1.57 7.12-8.61 8.59a.4.4 0 0 0-.25.61l11.99 18.86q.38.6-.33.66l-4.54.42a.67.65 70.7 0 1-.62-.31l-12.24-19.64a.53.53 0 0 0-.98.28Zm.03-20.3.06 14.36a.75.75 0 0 0 .75.75l2.74-.01a7.93 7.48-.2 0 0 7.9-7.51v-.9a7.93 7.48-.2 0 0-7.96-7.45l-2.74.01a.75.75 0 0 0-.75.75Z"/><path fill="#fff" d="M627.06 415.47a.75.75 0 0 1 .75-.75l2.74-.01a7.93 7.48-.2 0 1 7.96 7.45v.9a7.93 7.48-.2 0 1-7.9 7.51l-2.74.01a.75.75 0 0 1-.75-.75l-.06-14.36Z"/></svg>