<?xml version="1.0" encoding="utf-8"?>
<!-- Generator: Adobe Illustrator 24.1.3, SVG Export Plug-In . SVG Version: 6.00 Build 0)  -->
<svg version="1.1" id="Layer_1" xmlns="http://www.w3.org/2000/svg" xmlns:xlink="http://www.w3.org/1999/xlink" x="0px" y="0px"
	 viewBox="0 0 119.3 140.3" style="enable-background:new 0 0 119.3 140.3;" xml:space="preserve">
<style type="text/css">
	.st0{fill:#FFFFFF;}
	.st1{fill:#D4FF47;}
	.st2{fill:#00B9E3;}
</style>
<g>
	<path class="st0" d="M119.3,140.3H0V0h119.3V140.3z"/>
	<path d="M116.2,137.5H2.8V2.8h113.4L116.2,137.5L116.2,137.5z"/>
	<path class="st1" d="M10.8,59.4c0-12.9,5.1-24.7,13.4-33.4c-1.1,2.7-2.5,7.5-2.5,13.2c0,6.5,1.9,14.2,8.6,21.2l1.2,1.3
		c9.5,10,18,19,18,31c0,4.1-1,8.5-3.3,13.5C25.8,100.4,10.8,81.7,10.8,59.4"/>
	<path class="st2" d="M108.1,59.4c0-0.4,0-0.9,0-1.3l0,0c0-26.1-21.1-47.3-47.2-47.3c-0.4,0-1.3,0-1.3,0c-3.8,0.1-7.6,0.8-10.7,1.8
		c-1.5,0.4-6.6,2.2-10.4,6.1c-4,4.1-6.4,9.7-6.4,15.9c0,10.1,6.2,17.9,15.6,21.7c4,1.6,8.4,2.6,11.7,3.4c5.6,1.4,17.5,3.3,27.3,9.9
		l0.4,0.2C93.3,74,97,79.9,97,89.9c0,0.2,0,0.4,0,0.6C103.9,82.1,108.1,71.3,108.1,59.4z M66.9,55.4c-7.1,0-12.8-5.7-12.8-12.8
		c0-7.1,5.7-12.8,12.8-12.8s12.8,5.7,12.8,12.8C79.7,49.6,74,55.4,66.9,55.4z"/>
	<path id="Fairtrade_1_" class="st0" d="M109.2,129.3h-9.9v-14.1h9.9v2.1h-7.6v0.2v3.5h6.9v2h-6.9v4.2h7.6V129.3z M90,129.3h-4.5
		v-14.1h5c1.2,0,2.7,0,4.2,1.1c2.3,1.6,2.7,4.5,2.7,6.1c0,2.4-0.8,4.9-2.9,6.1C93.2,129.3,91.7,129.3,90,129.3z M89.2,127.2
		c2,0,2.8-0.1,3.4-0.3c1.1-0.4,2.3-1.4,2.2-4.4l0,0c0-1.4-0.2-3.6-2.3-4.6c-0.8-0.4-1.3-0.4-3.1-0.4h-1.6v0.2v9.7h1.4V127.2z
		 M74.5,129.3H72l4.8-14.1h2.8l4.8,14.1h-2.5l-0.8-2.8h-5.6L74.5,129.3z M75.9,124.5h4.4l-2.2-7.3L75.9,124.5z M62.7,129.3h-2.4
		v-14.1h4.4c1.9,0,3.1,0,4.4,1c0.9,0.7,1.5,1.8,1.5,3.4c0,2.7-1.9,3.6-2.7,3.8h-0.1h-0.1l3.2,5.8h-2.7l-2.9-5.3l0,0h-2.6L62.7,129.3
		L62.7,129.3z M62.7,122.1L62.7,122.1h1.1c0.9,0,1.3,0,1.8,0c0.3,0,1,0,1.6-0.3c0.6-0.3,1.1-0.9,1.1-2l0,0l0,0l0,0l0,0
		c0-0.3,0-1.5-1.2-2.1c-0.6-0.3-1.3-0.3-2.9-0.3h-1.4v0.2L62.7,122.1z M52.4,129.3h2.4v-12h4v-2.1H48.5v2.1h3.9V129.3z M39.7,129.3
		h-2.4v-14.1h4.4c1.9,0,3.2,0,4.4,1c0.9,0.7,1.5,1.8,1.5,3.4c0,2.7-1.9,3.6-2.7,3.8h-0.1h-0.1l3.2,5.8h-2.7l-2.9-5.3l0,0h-2.6
		C39.7,123.9,39.7,129.3,39.7,129.3z M39.7,122.1L39.7,122.1h1.1c0.9,0,1.3,0,1.8,0c0.3,0,1,0,1.5-0.3c0.6-0.3,1.1-0.9,1.1-2l0,0
		l0,0l0,0c0-0.3,0-1.5-1.2-2.1c-0.6-0.3-1.3-0.3-2.9-0.3h-1.4v0.2V122.1z M34.4,115.3h-2.3v14.1h2.3V115.3z M18,129.3l4.8-14.1h2.8
		l4.8,14.1h-2.5l-0.8-2.8H27h-5.5l-0.8,2.8H18z M22,124.5h4.4l-0.1-0.2l-2.1-7.1L22,124.5z M11.9,123.2h6v-2H12h-0.2v-3.9h6.9v-2.1
		H9.5v14.1h2.4V123.2z"/>
	<path id="Registered_1_" class="st0" d="M105.3,20.5c-3.8,0-6.8-3.1-6.8-6.8c0-3.8,3.1-6.8,6.8-6.8c3.8,0,6.8,3.1,6.8,6.8
		C112.1,17.5,109,20.5,105.3,20.5L105.3,20.5z M105.3,7.7c-3.3,0-6,2.7-6,6s2.7,6,6,6s6-2.7,6-6S108.6,7.7,105.3,7.7L105.3,7.7z
		 M102.2,9.6h4c2.1,0,2.5,1.5,2.5,2.2c0,0.9-0.4,1.6-1.2,1.9c0.6,0.3,1,0.5,1,2c0,1.2,0,1.4,0.4,1.6v0.2h-1.8
		c-0.1-0.4-0.2-0.8-0.2-1.6c0-1.1-0.1-1.5-1.3-1.5h-1.7v3.1h-1.6L102.2,9.6L102.2,9.6z M105.8,13.1c0.9,0,1.3-0.3,1.3-1.1
		c0-0.4-0.2-1-1.2-1h-2.1v2.1H105.8z"/>
</g>
</svg>
