<svg xmlns="http://www.w3.org/2000/svg" viewBox="0 0 579 343"><g fill="none" stroke-width="2"><path stroke="#8098af" d="M516.5 340.46q12.42.17 24.85.01c17.85-.24 32.06-10.67 34.26-29.15.84-6.97.15-17.15.15-22.77q-.02-123.65-.01-247.3c0-15.55-5.26-31.83-21.39-37.14q-4.63-1.52-15.04-1.57-13.65-.07-27.32-.08" vector-effect="non-scaling-stroke"/><path stroke="#b7bbc8" d="M512 2.46q-14.39-.47-18.25-.47c-150.65.22-301.34-.75-451.99.54Q33.77 2.6 29 3.92 4.96 10.6 4.76 37.75q-.74 100.7.23 266.5c.08 15.03 7.03 30.07 21.99 34.8q4.64 1.47 14.19 1.49c8.95.02 17.42-.1 26.78.31q5.65.25 11.3.25 213.97.06 427.94.06 4.17 0 9.31-.7" vector-effect="non-scaling-stroke"/><path stroke="#385378" d="m512 2.46-.25.75" vector-effect="non-scaling-stroke"/><path stroke="#b7bbc8" d="M511.75 3.21q-.77.06-1.5.06-213.85.24-427.7.21c-12.82 0-27.86-.44-41.8-.4C19.92 3.14 5.57 16.68 5.47 38c-.08 15.88.39 41.56.34 63.07q-.16 69 .26 137.99c.14 21.76-.9 43.5-.48 65.26.22 10.97 4.63 23.36 13.83 29.84 8.44 5.95 15.73 5.49 28.18 5.61 12.53.13 26.44-.52 37.54-.52q215.81-.04 431.61.06" vector-effect="non-scaling-stroke"/><path stroke="#385378" d="m516.75 339.31-.25 1.15" vector-effect="non-scaling-stroke"/><path stroke="#8098af" d="M516.75 339.31q18.62 1.12 26.67.39c22.02-2.01 31.59-15.8 31.59-36.44l-.02-261.55c0-19.8-8.93-38.31-31.5-38.39q-15.86-.05-31.74-.11M130.33 51.46q-3.04-2.12-6.54-2c-9.2.33-18.54.02-27.75.06-2.14.01-5.24.91-6.29 2.51q-3.48 5.28-15.31 26.42c-2.53 4.51-.45 7.33 2.24 12.11q5.89 10.45 12.02 20.76c1.12 1.88 3.61 4.17 5.55 4.17q14.55.02 29.11.01c4.1-.01 6.33-.58 8.36-4.04q9.41-16.07 14.16-24.5c1.03-1.83 1.99-5.09 1.13-6.68q-7.93-14.55-16.4-28.51-.11-.19-.28-.31m125.09 166.08q11.96.92 24.25.3c3.26-.17 5.06.72 5.06-3.83q.04-60.6 0-121.21 0-2.92-2.72-2.56l-26.64 3.48a1.01 1-4 0 0-.87.99v121.83a1 1 0 0 0 .92 1" vector-effect="non-scaling-stroke"/><path stroke="#80d4c8" d="M193.91 92.27q-1.71-1.53-3.92-1.56-14.63-.21-29.28-.2c-3.47 0-5.93.93-7.64 3.81q-4.41 7.42-13.5 23.43c-1.37 2.42-2.72 5.83-1.65 8.05q2.84 5.89 15.53 26.81 2.19 3.6 6.3 3.63 5.48.04 28.66 0c2.44 0 5.35-.87 6.58-2.77q4.27-6.65 14.92-25.84c1.24-2.22 1.95-4.99.8-7.08q-7.16-13-14.66-25.66-.87-1.48-2.14-2.62" vector-effect="non-scaling-stroke"/><path stroke="#8098af" d="M495.12 95.41c-31.82-8.63-85.22-11.88-81.8 38.41 2.95 43.46 58.77 27.06 61.99 44.94 5.24 29.06-40.43 16.07-54.1 12.92q-3.7-.86-4.47 3.06-1.31 6.71-2.27 13.52-.59 4.17 3.46 5.34c25.53 7.36 76.75 15.22 87.25-19.92q3.53-11.8.19-26.26c-5.37-23.32-28.8-24.38-47.84-28.05q-5.25-1.02-8.2-2.7c-6-3.43-7.28-11.67-3.9-17.08 7.74-12.39 39.02-4.34 50.32-1.52q3.22.81 3.89-2.44 1.28-6.27 2.41-13.37c.86-5.48-2.95-5.77-6.93-6.85M347.26 172.5H390q2.22 0 2.23-2.06l.03-18.2q0-2.72-2.82-2.72l-42.19-.03a1 1 0 0 1-1-1v-31.98a1 1 0 0 1 1-1l47.94-.02q2.32 0 2.31-2.23l-.01-18.52q0-2.23-2.3-2.23l-76.88-.01q-2.31 0-2.31 2.31v122.16a1 1 0 0 0 1 1l26.75-.05q2.49 0 2.49-2.92l.02-41.5a1 1 0 0 1 1-1" vector-effect="non-scaling-stroke"/><path stroke="#80d4c8" d="M193.05 167.43q-1.55-.92-3.37-.92l-28.77-.02c-3.61 0-5.82.52-7.64 3.55q-7.36 12.22-14.27 24.71c-1.42 2.58-2.02 5.46-.68 7.93q2.51 4.66 13.65 23.72c2.31 3.95 3.98 5.78 8.54 5.79q17.07.06 24.79-.01c4.72-.04 7.92.15 10.23-3.66q5.62-9.24 14.36-24.88c2.79-4.99.45-7.84-1.91-12.07q-6.19-11.11-12.79-22.01-.81-1.34-2.14-2.13m181.38 94.02q-4.08-.71-8.18-.46c-12.43.75-11.87 10.48-11.4 20.24.61 12.75 13.12 13.21 22.38 10.72 2.46-.66 4.71-1.25 4.76-3.95q.1-6.72-.03-38.43a1 1 0 0 0-1.17-.98l-4.5.77a.99.99 0 0 0-.83 1l.14 10.09a1.01 1-85.4 0 1-1.17 1m-112.65 7.29-.11-12.73a1 1 0 0 1 1-1.01H281a1 1 0 0 0 1-1v-3.58a.99.99 0 0 0-1-1l-25.26.11a1.01 1 1.5 0 0-1 .94q-.14 2.46-.02 7.29.3 12.08-.19 33.45a.99.99 0 0 0 1.03 1.02l5.02-.16a1 .99 89.1 0 0 .96-1l.06-14.57a1 1 0 0 1 1-1h16.65a1 1 0 0 0 1-1v-3.71a1 .99-90 0 0-.99-1l-16.48-.06a1 1 0 0 1-1-.99m53.04 3.89a11.7 11.7 0 0 0-11.7-11.7h-4.72a11.7 11.7 0 0 0-11.7 11.7v8.52a11.7 11.7 0 0 0 11.7 11.7h4.72a11.7 11.7 0 0 0 11.7-11.7v-8.52m33.53-.23a11.48 11.48 0 0 0-11.48-11.48h-4.96a11.48 11.48 0 0 0-11.48 11.48v8.98a11.48 11.48 0 0 0 11.48 11.48h4.96a11.48 11.48 0 0 0 11.48-11.48v-8.98" vector-effect="non-scaling-stroke"/><path stroke="#80d4c8" d="M364.72 287.34q4.88 1.27 9.76.09a1 1 0 0 0 .77-.97v-19.11a1.01 1.01 0 0 0-.77-.98q-3.75-.87-7.53-.43c-7.34.87-5.97 12.73-4.95 17.66q.67 3.21 2.72 3.74m-56.79-15.19a6.35 6.35 0 0 0-6.35-6.35h-1.66a6.35 6.35 0 0 0-6.35 6.35v9.48a6.35 6.35 0 0 0 6.35 6.35h1.66a6.35 6.35 0 0 0 6.35-6.35v-9.48m33.567-.135a6.19 6.19 0 0 0-6.168-6.212l-1.8-.006a6.19 6.19 0 0 0-6.212 6.168l-.034 9.8a6.19 6.19 0 0 0 6.168 6.212l1.8.006a6.19 6.19 0 0 0 6.212-6.168l.034-9.8" vector-effect="non-scaling-stroke"/></g><path fill="#fff" d="M0 0h579v343H0V0Zm516.5 340.46q12.42.17 24.85.01c17.85-.24 32.06-10.67 34.26-29.15.84-6.97.15-17.15.15-22.77q-.02-123.65-.01-247.3c0-15.55-5.26-31.83-21.39-37.14q-4.63-1.52-15.04-1.57-13.65-.07-27.32-.08-14.39-.47-18.25-.47c-150.65.22-301.34-.75-451.99.54Q33.77 2.6 29 3.92 4.96 10.6 4.76 37.75q-.74 100.7.23 266.5c.08 15.03 7.03 30.07 21.99 34.8q4.64 1.47 14.19 1.49c8.95.02 17.42-.1 26.78.31q5.65.25 11.3.25 213.97.06 427.94.06 4.17 0 9.31-.7Z"/><path fill="#6f7691" d="m512 2.46-.25.75q-.77.06-1.5.06-213.85.24-427.7.21c-12.82 0-27.86-.44-41.8-.4C19.92 3.14 5.57 16.68 5.47 38c-.08 15.88.39 41.56.34 63.07q-.16 69 .26 137.99c.14 21.76-.9 43.5-.48 65.26.22 10.97 4.63 23.36 13.83 29.84 8.44 5.95 15.73 5.49 28.18 5.61 12.53.13 26.44-.52 37.54-.52q215.81-.04 431.61.06l-.25 1.15q-5.14.7-9.31.7-213.97 0-427.94-.06-5.65 0-11.3-.25c-9.36-.41-17.83-.29-26.78-.31q-9.55-.02-14.19-1.49c-14.96-4.73-21.91-19.77-21.99-34.8q-.97-165.8-.23-266.5Q4.96 10.6 29 3.92q4.77-1.32 12.76-1.39c150.65-1.29 301.34-.32 451.99-.54q3.86 0 18.25.47Z"/><path fill="#00305e" d="M512 2.46q13.67.01 27.32.08 10.41.05 15.04 1.57c16.13 5.31 21.39 21.59 21.39 37.14q-.01 123.65.01 247.3c0 5.62.69 15.8-.15 22.77-2.2 18.48-16.41 28.91-34.26 29.15q-12.43.16-24.85-.01l.25-1.15q18.62 1.12 26.67.39c22.02-2.01 31.59-15.8 31.59-36.44l-.02-261.55c0-19.8-8.93-38.31-31.5-38.39q-15.86-.05-31.74-.11l.25-.75Z"/><path fill="#fff" d="M511.75 3.21q15.88.06 31.74.11c22.57.08 31.5 18.59 31.5 38.39l.02 261.55c0 20.64-9.57 34.43-31.59 36.44q-8.05.73-26.67-.39-215.8-.1-431.61-.06c-11.1 0-25.01.65-37.54.52-12.45-.12-19.74.34-28.18-5.61-9.2-6.48-13.61-18.87-13.83-29.84-.42-21.76.62-43.5.48-65.26q-.42-68.99-.26-137.99c.05-21.51-.42-47.19-.34-63.07.1-21.32 14.45-34.86 35.28-34.92 13.94-.04 28.98.4 41.8.4q213.85.03 427.7-.21.73 0 1.5-.06ZM130.33 51.46q-3.04-2.12-6.54-2c-9.2.33-18.54.02-27.75.06-2.14.01-5.24.91-6.29 2.51q-3.48 5.28-15.31 26.42c-2.53 4.51-.45 7.33 2.24 12.11q5.89 10.45 12.02 20.76c1.12 1.88 3.61 4.17 5.55 4.17q14.55.02 29.11.01c4.1-.01 6.33-.58 8.36-4.04q9.41-16.07 14.16-24.5c1.03-1.83 1.99-5.09 1.13-6.68q-7.93-14.55-16.4-28.51-.11-.19-.28-.31Zm125.09 166.08q11.96.92 24.25.3c3.26-.17 5.06.72 5.06-3.83q.04-60.6 0-121.21 0-2.92-2.72-2.56l-26.64 3.48a1.01 1-4 0 0-.87.99v121.83a1 1 0 0 0 .92 1ZM193.91 92.27q-1.71-1.53-3.92-1.56-14.63-.21-29.28-.2c-3.47 0-5.93.93-7.64 3.81q-4.41 7.42-13.5 23.43c-1.37 2.42-2.72 5.83-1.65 8.05q2.84 5.89 15.53 26.81 2.19 3.6 6.3 3.63 5.48.04 28.66 0c2.44 0 5.35-.87 6.58-2.77q4.27-6.65 14.92-25.84c1.24-2.22 1.95-4.99.8-7.08q-7.16-13-14.66-25.66-.87-1.48-2.14-2.62Zm301.21 3.14c-31.82-8.63-85.22-11.88-81.8 38.41 2.95 43.46 58.77 27.06 61.99 44.94 5.24 29.06-40.43 16.07-54.1 12.92q-3.7-.86-4.47 3.06-1.31 6.71-2.27 13.52-.59 4.17 3.46 5.34c25.53 7.36 76.75 15.22 87.25-19.92q3.53-11.8.19-26.26c-5.37-23.32-28.8-24.38-47.84-28.05q-5.25-1.02-8.2-2.7c-6-3.43-7.28-11.67-3.9-17.08 7.74-12.39 39.02-4.34 50.32-1.52q3.22.81 3.89-2.44 1.28-6.27 2.41-13.37c.86-5.48-2.95-5.77-6.93-6.85ZM347.26 172.5H390q2.22 0 2.23-2.06l.03-18.2q0-2.72-2.82-2.72l-42.19-.03a1 1 0 0 1-1-1v-31.98a1 1 0 0 1 1-1l47.94-.02q2.32 0 2.31-2.23l-.01-18.52q0-2.23-2.3-2.23l-76.88-.01q-2.31 0-2.31 2.31v122.16a1 1 0 0 0 1 1l26.75-.05q2.49 0 2.49-2.92l.02-41.5a1 1 0 0 1 1-1Zm-154.21-5.07q-1.55-.92-3.37-.92l-28.77-.02c-3.61 0-5.82.52-7.64 3.55q-7.36 12.22-14.27 24.71c-1.42 2.58-2.02 5.46-.68 7.93q2.51 4.66 13.65 23.72c2.31 3.95 3.98 5.78 8.54 5.79q17.07.06 24.79-.01c4.72-.04 7.92.15 10.23-3.66q5.62-9.24 14.36-24.88c2.79-4.99.45-7.84-1.91-12.07q-6.19-11.11-12.79-22.01-.81-1.34-2.14-2.13Zm181.38 94.02q-4.08-.71-8.18-.46c-12.43.75-11.87 10.48-11.4 20.24.61 12.75 13.12 13.21 22.38 10.72 2.46-.66 4.71-1.25 4.76-3.95q.1-6.72-.03-38.43a1 1 0 0 0-1.17-.98l-4.5.77a.99.99 0 0 0-.83 1l.14 10.09a1.01 1-85.4 0 1-1.17 1Zm-112.65 7.29-.11-12.73a1 1 0 0 1 1-1.01H281a1 1 0 0 0 1-1v-3.58a.99.99 0 0 0-1-1l-25.26.11a1.01 1 1.5 0 0-1 .94q-.14 2.46-.02 7.29.3 12.08-.19 33.45a.99.99 0 0 0 1.03 1.02l5.02-.16a1 .99 89.1 0 0 .96-1l.06-14.57a1 1 0 0 1 1-1h16.65a1 1 0 0 0 1-1v-3.71a1 .99-90 0 0-.99-1l-16.48-.06a1 1 0 0 1-1-.99Zm53.04 3.89a11.7 11.7 0 0 0-11.7-11.7h-4.72a11.7 11.7 0 0 0-11.7 11.7v8.52a11.7 11.7 0 0 0 11.7 11.7h4.72a11.7 11.7 0 0 0 11.7-11.7v-8.52Zm33.53-.23a11.48 11.48 0 0 0-11.48-11.48h-4.96a11.48 11.48 0 0 0-11.48 11.48v8.98a11.48 11.48 0 0 0 11.48 11.48h4.96a11.48 11.48 0 0 0 11.48-11.48v-8.98Z"/><path fill="#00305e" d="M130.33 51.46q.17.12.28.31 8.47 13.96 16.4 28.51c.86 1.59-.1 4.85-1.13 6.68q-4.75 8.43-14.16 24.5c-2.03 3.46-4.26 4.03-8.36 4.04q-14.56.01-29.11-.01c-1.94 0-4.43-2.29-5.55-4.17q-6.13-10.31-12.02-20.76c-2.69-4.78-4.77-7.6-2.24-12.11q11.83-21.14 15.31-26.42c1.05-1.6 4.15-2.5 6.29-2.51 9.21-.04 18.55.27 27.75-.06q3.5-.12 6.54 2Zm125.09 166.08a1 1 0 0 1-.92-1V94.71a1.01 1-4 0 1 .87-.99l26.64-3.48q2.72-.36 2.72 2.56.04 60.61 0 121.21c0 4.55-1.8 3.66-5.06 3.83q-12.29.62-24.25-.3Z"/><path fill="#00a891" d="M193.91 92.27q1.27 1.14 2.14 2.62 7.5 12.66 14.66 25.66c1.15 2.09.44 4.86-.8 7.08q-10.65 19.19-14.92 25.84c-1.23 1.9-4.14 2.77-6.58 2.77q-23.18.04-28.66 0-4.11-.03-6.3-3.63-12.69-20.92-15.53-26.81c-1.07-2.22.28-5.63 1.65-8.05q9.09-16.01 13.5-23.43c1.71-2.88 4.17-3.81 7.64-3.81q14.65-.01 29.28.2 2.21.03 3.92 1.56Z"/><path fill="#00305e" d="M413.32 133.82c-3.42-50.29 49.98-47.04 81.8-38.41 3.98 1.08 7.79 1.37 6.93 6.85q-1.13 7.1-2.41 13.37-.67 3.25-3.89 2.44c-11.3-2.82-42.58-10.87-50.32 1.52-3.38 5.41-2.1 13.65 3.9 17.08q2.95 1.68 8.2 2.7c19.04 3.67 42.47 4.73 47.84 28.05q3.34 14.46-.19 26.26c-10.5 35.14-61.72 27.28-87.25 19.92q-4.05-1.17-3.46-5.34.96-6.81 2.27-13.52.77-3.92 4.47-3.06c13.67 3.15 59.34 16.14 54.1-12.92-3.22-17.88-59.04-1.48-61.99-44.94Zm-66.06 38.68a1 1 0 0 0-1 1l-.02 41.5q0 2.92-2.49 2.92l-26.75.05a1 1 0 0 1-1-1V94.81q0-2.31 2.31-2.31l76.88.01q2.3 0 2.3 2.23l.01 18.52q.01 2.23-2.31 2.23l-47.94.02a1 1 0 0 0-1 1v31.98a1 1 0 0 0 1 1l42.19.03q2.82 0 2.82 2.72l-.03 18.2q-.01 2.06-2.23 2.06h-42.74Z"/><path fill="#00a891" d="M193.05 167.43q1.33.79 2.14 2.13 6.6 10.9 12.79 22.01c2.36 4.23 4.7 7.08 1.91 12.07q-8.74 15.64-14.36 24.88c-2.31 3.81-5.51 3.62-10.23 3.66q-7.72.07-24.79.01c-4.56-.01-6.23-1.84-8.54-5.79q-11.14-19.06-13.65-23.72c-1.34-2.47-.74-5.35.68-7.93q6.91-12.49 14.27-24.71c1.82-3.03 4.03-3.55 7.64-3.55l28.77.02q1.82 0 3.37.92Zm182.55 93.02-.14-10.09a.99.99 0 0 1 .83-1l4.5-.77a1 1 0 0 1 1.17.98q.13 31.71.03 38.43c-.05 2.7-2.3 3.29-4.76 3.95-9.26 2.49-21.77 2.03-22.38-10.72-.47-9.76-1.03-19.49 11.4-20.24q4.1-.25 8.18.46a1.01 1-85.4 0 0 1.17-1Zm-10.88 26.89q4.88 1.27 9.76.09a1 1 0 0 0 .77-.97v-19.11a1.01 1.01 0 0 0-.77-.98q-3.75-.87-7.53-.43c-7.34.87-5.97 12.73-4.95 17.66q.67 3.21 2.72 3.74Zm-101.94-17.61 16.48.06a1 .99 90 0 1 .99 1v3.71a1 1 0 0 1-1 1H262.6a1 1 0 0 0-1 1l-.06 14.57a1 .99 89.1 0 1-.96 1l-5.02.16a.99.99 0 0 1-1.03-1.02q.49-21.37.19-33.45-.12-4.83.02-7.29a1.01 1 1.5 0 1 1-.94l25.26-.11a.99.99 0 0 1 1 1V254a1 1 0 0 1-1 1h-18.33a1 1 0 0 0-1 1.01l.11 12.73a1 1 0 0 0 1 .99Zm52.04 11.42a11.7 11.7 0 0 1-11.7 11.7h-4.72a11.7 11.7 0 0 1-11.7-11.7v-8.52a11.7 11.7 0 0 1 11.7-11.7h4.72a11.7 11.7 0 0 1 11.7 11.7v8.52Zm-6.89-9a6.35 6.35 0 0 0-6.35-6.35h-1.66a6.35 6.35 0 0 0-6.35 6.35v9.48a6.35 6.35 0 0 0 6.35 6.35h1.66a6.35 6.35 0 0 0 6.35-6.35v-9.48Zm40.42 9.23a11.48 11.48 0 0 1-11.48 11.48h-4.96a11.48 11.48 0 0 1-11.48-11.48v-8.98a11.48 11.48 0 0 1 11.48-11.48h4.96a11.48 11.48 0 0 1 11.48 11.48v8.98Zm-6.853-9.365a6.19 6.19 0 0 0-6.168-6.212l-1.8-.006a6.19 6.19 0 0 0-6.212 6.168l-.034 9.8a6.19 6.19 0 0 0 6.168 6.212l1.8.006a6.19 6.19 0 0 0 6.212-6.168l.034-9.8Z"/><rect width="14.36" height="22.18" x="293.57" y="265.8" fill="#fff" rx="6.35"/><rect width="14.18" height="22.18" x="-7.09" y="-11.09" fill="#fff" rx="6.19" transform="rotate(.2 -79155.866 95934.026)"/><path fill="#fff" d="M364.72 287.34q-2.05-.53-2.72-3.74c-1.02-4.93-2.39-16.79 4.95-17.66q3.78-.44 7.53.43a1.01 1.01 0 0 1 .77.98v19.11a1 1 0 0 1-.77.97q-4.88 1.18-9.76-.09Z"/></svg>